HIERARCHY
ROOT Hip
{
  OFFSET 0.0 0.0 0.0
  CHANNELS 6 Xposition Yposition Zposition Xrotation Yrotation Zrotation
  JOINT LowerSpine
  {
    OFFSET 0.0 0.061367 -0.03653
    CHANNELS 3 Xrotation Yrotation Zrotation
    JOINT MiddleSpine
    {
      OFFSET 0.0 0.056002 0.002633
      CHANNELS 3 Xrotation Yrotation Zrotation
      JOINT Chest
      {
        OFFSET 0.0 0.069296 -0.013882
        CHANNELS 3 Xrotation Yrotation Zrotation
        JOINT Neck
        {
          OFFSET 0.0 0.156156 -0.002923
          CHANNELS 3 Xrotation Yrotation Zrotation
          JOINT Head
          {
            OFFSET 0.0 0.088183 0.023986
            CHANNELS 3 Xrotation Yrotation Zrotation
            End Site
            {
              OFFSET 1e-06 0.123215 0.003678
            }
          }
        }
        JOINT LClavicle
        {
          OFFSET 0.014189 0.150698 0.046467
          CHANNELS 3 Xrotation Yrotation Zrotation
          JOINT LShoulder
          {
            OFFSET 0.082893 0.021616 -0.034976
            CHANNELS 3 Xrotation Yrotation Zrotation
            JOINT LForearm
            {
              OFFSET 0.195645 -0.000695 -0.001695
              CHANNELS 3 Xrotation Yrotation Zrotation
              JOINT LHand
              {
                OFFSET 0.163209 0.000474 -0.000977
                CHANNELS 3 Xrotation Yrotation Zrotation
                End Site
                {
                  OFFSET 0.0 0.006864 0.0
                }
              }
            }
          }
        }
        JOINT RClavicle
        {
          OFFSET -0.014189 0.150698 0.046467
          CHANNELS 3 Xrotation Yrotation Zrotation
          JOINT RShoulder
          {
            OFFSET -0.082908 0.021619 -0.034982
            CHANNELS 3 Xrotation Yrotation Zrotation
            JOINT RForearm
            {
              OFFSET -0.195645 -0.000695 -0.001695
              CHANNELS 3 Xrotation Yrotation Zrotation
              JOINT RHand
              {
                OFFSET -0.163209 0.000474 -0.000977
                CHANNELS 3 Xrotation Yrotation Zrotation
                End Site
                {
                  OFFSET 0.0 0.006864 0.0
                }
              }
            }
          }
        }
      }
    }
  }
  JOINT RThigh
  {
    OFFSET -0.072558 0.02774 -0.005953
    CHANNELS 3 Xrotation Yrotation Zrotation
    JOINT RShin
    {
      OFFSET -0.005253 -0.285537 0.0
      CHANNELS 3 Xrotation Yrotation Zrotation
      JOINT RFoot
      {
        OFFSET 0.0 -0.28038 0.0
        CHANNELS 3 Xrotation Yrotation Zrotation
        JOINT RToe
        {
          OFFSET 0.0 -0.030816 0.064441
          CHANNELS 3 Xrotation Yrotation Zrotation
          End Site
          {
            OFFSET 0.0 0.0 0.043231
          }
        }
      }
    }
  }
  JOINT LThigh
  {
    OFFSET 0.072557 0.027741 -0.005953
    CHANNELS 3 Xrotation Yrotation Zrotation
    JOINT LShin
    {
      OFFSET 0.005253 -0.285539 0.0
      CHANNELS 3 Xrotation Yrotation Zrotation
      JOINT LFoot
      {
        OFFSET 0.0 -0.28038 0.0
        CHANNELS 3 Xrotation Yrotation Zrotation
        JOINT LToe
        {
          OFFSET 0.0 -0.030816 0.064441
          CHANNELS 3 Xrotation Yrotation Zrotation
          End Site
          {
            OFFSET 0.0 0.0 0.043231
          }
        }
      }
    }
  }
}
MOTION
Frames: 15
Frame Time: 0.03333333333333333
-0.027132 0.580755 0.006841 12.180475 10.812804 9.354424 -13.178699 12.474389 -7.712469 2.853699 0.539458 -19.445261 -8.743734 -8.854347 12.912464 -6.000921 -19.301571 -4.268001 -8.996183 19.083878 2.582088 -4.146633 19.091326 -13.74235 20.931679 -17.991249 -42.766018 0.246142 -28.231441 -16.824093 -13.331138 -12.110721 9.766721 12.837536 -1.299442 27.440777 12.174876 30.60161 42.653198 -1.540477 24.910423 16.174278 17.863794 5.538914 8.76001 -12.584753 -3.056796 -13.079725 18.276592 10.417864 10.655119 -8.713238 -6.513853 14.899459 1.382789 -17.133093 -10.782366 -8.842084 8.330304 -16.360464 7.536991 14.899619 7.365745 9.498634 3.859852 -16.240997 -13.071067 15.559617 7.115862 
-0.035964 0.579209 -0.001268 14.717002 10.52516 14.147907 -14.493196 16.418135 -11.114981 3.249182 -0.008825 -25.250393 -8.638064 -15.333886 15.006985 -2.964915 -23.391775 -6.789484 -6.851227 24.101362 4.382968 -9.169112 22.99733 -11.644732 23.042046 -13.610997 -36.99725 -1.669344 -24.891483 -23.173834 -12.946486 -15.852497 13.607504 16.114559 5.121909 31.208145 13.50477 28.681454 36.223511 -4.046498 28.737434 23.281746 21.290817 6.911706 11.213692 -18.392307 -1.883936 -20.538116 20.828108 15.292715 13.054428 -11.079131 -8.46938 19.36841 0.611288 -21.634613 -13.639518 -12.375873 12.612328 -22.226902 7.219137 21.353025 11.528407 13.610324 3.491299 -20.340446 -13.775968 20.154692 10.29427 
-0.041398 0.572176 0.004441 14.928355 9.743942 17.775034 -15.023002 17.196291 -12.242607 3.726543 1.123938 -27.113699 -9.390685 -17.436331 15.056726 -3.385284 -24.948944 -8.119529 -6.563307 25.759874 4.766447 -9.914189 24.666107 -11.133075 22.881403 -12.061527 -35.734497 -3.024198 -24.721842 -24.956856 -13.152556 -16.761856 14.999273 17.258671 3.964347 33.183479 12.837832 27.395016 34.977818 -6.374287 29.039587 26.389402 22.59947 6.90292 12.099546 -19.155828 -2.823564 -22.341759 18.69136 17.025208 13.46304 -11.352865 -9.168428 21.10491 1.293709 -22.649748 -14.680423 -12.466389 12.80861 -23.950056 6.824975 23.697798 11.59376 15.117643 4.578162 -21.094673 -14.022878 21.426313 11.876882 
-0.039684 0.567261 0.008024 15.022912 7.553828 19.676987 -14.655298 17.73395 -13.4637 4.166328 1.535821 -28.128386 -9.636269 -18.675383 15.568662 -3.096969 -25.855955 -8.773629 -6.662634 26.766203 4.93235 -10.251748 25.632343 -11.262539 22.109549 -12.007327 -34.941643 -4.097272 -24.026335 -26.136896 -13.384673 -17.437794 15.691941 18.044155 3.275602 34.091103 11.791306 26.582607 34.566845 -7.801694 29.200565 28.235935 23.447222 7.12352 12.457111 -19.991104 -3.647758 -23.139017 17.687223 17.097057 14.291186 -11.695604 -9.698095 21.930599 1.761548 -23.282991 -15.230753 -13.09972 12.607912 -24.801468 7.432846 24.162247 12.10613 15.369142 5.489582 -21.73332 -14.395346 22.247427 12.635528 
-0.044547 0.56603 0.01736 15.095603 5.666416 20.530958 -14.248137 17.915285 -14.322934 4.467142 1.600883 -28.581047 -9.640449 -19.436884 15.889416 -2.933175 -26.292286 -8.940777 -6.794177 27.236067 4.967965 -10.561873 26.060621 -11.34009 21.518164 -12.63075 -34.458805 -4.668472 -23.280918 -26.557968 -13.415372 -17.860092 15.995192 18.397514 2.996117 34.556213 11.357977 26.153084 34.508427 -8.067256 28.910019 28.889006 23.840994 7.278441 12.639593 -20.84437 -4.194522 -23.423851 17.341402 16.820105 15.243072 -11.900495 -9.698392 22.408415 2.155115 -23.528433 -15.545835 -13.150817 12.316875 -25.288221 7.765333 24.113785 12.478891 14.910366 6.034781 -22.297424 -14.541512 22.697805 12.955674 
-0.046958 0.563556 0.025464 14.95576 3.672348 21.025013 -13.765594 17.939159 -15.001701 4.824928 1.452236 -28.589577 -9.659879 -19.832666 15.974349 -2.999738 -26.46586 -8.830576 -6.853231 27.391874 4.902034 -10.859818 26.102453 -11.253375 21.19705 -13.795196 -34.339634 -5.027912 -22.251709 -26.460928 -13.29825 -18.093632 16.092943 18.509426 3.197678 34.631149 11.129506 25.950062 34.804981 -7.64637 27.761332 28.690613 23.94961 7.341465 12.712006 -21.246325 -4.243616 -23.046535 16.712885 16.667099 15.815694 -12.173351 -9.247434 22.789349 2.476721 -23.568739 -15.692406 -12.882345 11.81751 -25.491573 8.458859 23.564562 12.717053 13.875763 6.557385 -22.732773 -14.480721 22.896837 13.080115 
-0.047876 0.560597 0.03204 14.854942 2.194276 21.273247 -13.351754 17.877066 -15.477529 5.191917 1.188407 -28.38345 -9.688726 -20.223343 15.747828 -3.338155 -26.509056 -8.644059 -6.866379 27.373606 4.810067 -11.098377 25.947065 -11.112391 21.274143 -15.049248 -34.323345 -5.408797 -21.193689 -26.18965 -13.152589 -18.185232 16.05669 18.434811 3.736727 34.59996 11.203727 25.559473 35.081329 -6.934161 26.71533 28.36923 23.913624 7.342492 12.69696 -21.793053 -3.996696 -22.316406 16.100143 16.576542 15.935786 -12.235373 -8.478724 23.115227 2.786253 -23.457989 -15.716938 -12.755109 11.351611 -25.412533 9.341535 23.012442 12.70572 12.533875 6.880315 -23.03953 -14.193621 22.990946 13.121754 
-0.048922 0.558343 0.039583 15.232984 1.068159 21.683695 -13.108719 17.80732 -15.964538 5.465945 1.011037 -28.324852 -9.648014 -20.642639 15.42301 -4.082206 -26.640182 -8.539176 -6.871042 27.424713 4.726489 -11.22366 25.950584 -11.093624 21.401129 -16.094835 -34.037975 -5.943662 -20.689064 -26.111454 -13.057677 -18.301256 16.070763 18.387741 3.921754 34.926491 11.374749 25.129419 35.119949 -6.3769 25.653292 28.175915 23.920485 7.324369 12.761001 -22.997263 -3.658013 -21.641006 15.396382 16.563744 16.018923 -12.246839 -7.736849 23.571972 3.061743 -23.42662 -15.805642 -13.282845 10.708567 -25.228184 11.027368 22.620316 12.571288 11.314821 7.274415 -23.416042 -13.863983 23.172512 13.214085 
-0.050346 0.556417 0.047714 15.502646 0.655084 21.916811 -12.89243 17.688396 -16.462137 5.552777 0.711425 -28.301571 -9.402005 -21.097927 15.143635 -4.692335 -26.812983 -8.452167 -6.887759 27.505985 4.651746 -11.242301 26.030424 -11.193125 21.368652 -16.855278 -33.533951 -6.48552 -20.684107 -26.157633 -13.009707 -18.38278 16.135933 18.41923 3.776032 35.296707 11.306626 25.069664 35.211334 -6.205562 24.810259 27.993717 23.952925 7.293741 12.857307 -24.374575 -3.830076 -20.925365 14.236114 16.503586 16.160536 -11.995954 -6.975427 24.176035 3.490807 -23.404127 -15.89066 -13.329104 10.218016 -25.071859 12.580457 22.310312 12.410811 10.55652 7.714633 -23.75185 -13.545512 23.414879 13.284066 
-0.052517 0.554268 0.057088 15.833002 0.715797 22.171751 -12.75371 17.600239 -16.868755 5.471574 0.211303 -28.309589 -9.068589 -21.614414 14.955196 -4.865902 -27.022453 -8.354926 -6.917107 27.627144 4.534483 -11.090018 26.304209 -11.342094 21.02149 -17.388372 -33.177055 -7.00739 -21.090298 -26.31192 -13.064147 -18.433039 16.224209 18.607769 3.315005 35.667068 11.093682 24.961138 35.418365 -6.314272 24.20841 27.87077 24.03389 7.291432 12.95953 -25.948524 -4.471598 -20.46541 12.654545 16.342875 16.491816 -11.579664 -6.273944 24.871513 3.980817 -23.441622 -15.955683 -13.0809 9.839199 -24.819782 13.81283 22.156513 12.386065 10.221487 8.439488 -23.93128 -13.325527 23.726952 13.280981 
-0.053624 0.55225 0.069395 16.609304 1.343916 22.201458 -12.801073 17.597084 -17.153067 5.333512 -0.243217 -28.371914 -8.798222 -22.214611 14.784838 -4.640199 -27.278849 -8.192677 -6.977928 27.815065 4.382324 -10.784419 26.756653 -11.754676 20.428698 -17.427671 -32.924175 -7.709476 -21.758642 -26.579855 -13.131557 -18.500013 16.369682 18.877785 2.506019 36.145374 10.858986 24.293205 35.818447 -6.815245 23.880814 27.674791 24.162836 7.330722 13.088763 -28.125902 -5.316199 -20.271107 11.645201 16.158108 16.994217 -11.169823 -5.885514 25.455322 4.426161 -23.561565 -16.019369 -12.96701 9.806008 -24.678143 14.94427 22.231514 12.423668 10.057837 9.336432 -24.028696 -13.259417 24.064465 13.296642 
-0.055629 0.549863 0.083967 17.58077 2.136723 22.441931 -13.056521 17.62781 -17.380898 5.169993 -0.675679 -28.563683 -8.765566 -23.043499 14.377782 -4.234966 -27.57781 -8.018499 -7.188722 28.113373 4.287054 -10.259292 27.464668 -12.314729 19.504835 -17.025364 -32.547329 -8.844133 -22.575985 -27.047985 -13.153777 -18.652077 16.636381 19.235218 1.433434 36.762474 10.639543 23.391495 36.364143 -7.527957 23.530312 27.636387 24.391897 7.431856 13.242099 -30.412643 -5.983704 -20.127264 10.996143 16.086269 17.619642 -10.844457 -5.835574 25.941236 4.798418 -23.777367 -16.104422 -12.787305 10.042804 -24.792536 15.979637 22.603527 12.429151 9.942141 10.218513 -24.227802 -13.3355 24.478065 13.353916 
-0.058031 0.547426 0.100396 18.710474 3.239482 22.696558 -13.425364 17.695688 -17.58849 4.941858 -1.087936 -28.894238 -8.745646 -23.913118 13.868396 -3.818708 -27.913052 -8.007086 -7.453434 28.46352 4.168403 -9.753098 28.227554 -12.849725 18.524498 -16.584255 -32.031372 -9.984955 -23.52182 -27.64414 -13.205575 -18.82192 16.982965 19.719303 0.345824 37.385685 10.421036 22.451256 37.079865 -8.32958 23.233871 27.723974 24.723314 7.551751 13.341883 -32.837498 -6.571066 -20.170658 10.259511 16.102102 18.08972 -10.3943 -5.987634 26.433456 5.247368 -23.985033 -16.276255 -12.609028 10.315721 -25.010923 16.914789 23.074238 12.584541 10.086811 10.909021 -24.418041 -13.512874 24.915197 13.466784 
-0.061095 0.545094 0.117997 19.053623 4.08624 23.159004 -13.467311 17.827343 -17.732712 4.573813 -1.457657 -29.114618 -8.3549 -24.364824 13.680914 -2.942409 -27.979801 -7.855044 -7.85475 28.642275 4.000456 -9.31627 28.852097 -13.337629 17.46476 -15.839541 -31.820667 -10.957522 -24.89621 -28.324543 -13.181639 -18.918198 17.230803 20.045996 -0.89486 37.86459 10.128714 21.689011 37.869511 -8.805222 22.551765 27.37776 25.011047 7.624442 13.257002 -34.49773 -7.126663 -20.346853 9.729806 16.127584 18.589716 -9.811072 -5.973894 26.757404 5.743913 -24.053265 -16.299522 -11.223211 11.054306 -25.420807 16.801794 23.712891 12.838104 10.193783 11.335309 -24.598209 -13.613183 25.205551 13.496731 
-0.063306 0.543164 0.13563 19.192457 4.978937 23.351664 -13.485634 17.981171 -17.830822 4.246235 -1.761048 -29.292603 -7.758371 -24.740343 13.624452 -1.999444 -27.955137 -7.590658 -8.143633 28.764463 3.919087 -8.956249 29.403046 -13.880432 16.425301 -15.141541 -31.742607 -11.979447 -26.34453 -29.071928 -13.127619 -18.996897 17.44142 20.266666 -1.857825 38.105778 9.817525 21.02438 38.571762 -9.125683 22.29232 26.992361 25.231363 7.728207 13.186544 -35.881084 -7.551692 -20.411522 9.094707 16.294115 18.766699 -9.26275 -5.702673 26.996721 6.34019 -24.073221 -16.204227 -9.569497 12.093485 -25.674955 16.271065 24.474333 13.03627 10.294841 11.701299 -24.71192 -13.636183 25.481297 13.502524 
